<svg xmlns="http://www.w3.org/2000/svg" xmlns:xlink="http://www.w3.org/1999/xlink" role="presentation" focusable="false"><defs>
<symbol viewBox="0 0 100 100" class="shapes" id="shape-circle"><circle class="icon-outercircle" cx="50" cy="50" r="46"/></symbol>
<symbol viewBox="0 0 100 100" class="shapes" id="shape-round-rect"><path d="M91.242,96.359c2.825,0,5.117-2.291,5.117-5.117V8.758c0-2.827-2.291-5.117-5.117-5.117H8.758 c-2.826,0-5.117,2.291-5.117,5.117v82.484c0,2.825,2.29,5.117,5.117,5.117H91.242z"/></symbol>
<symbol viewBox="0 0 100 100" class="icon" id="lob-tv"><path d="M8.5,18h83c1.8,0,3.1,1.1,3.1,2.5v45c0,1.4-1.4,2.5-3.1,2.5h-83c-1.8,0-3.1-1.1-3.1-2.5v-45C5.3,19,6.7,18,8.5,18z"/><line x1="50" y1="68.5" x2="50" y2="79.2"/><line x1="34.9" y1="80" x2="65.1" y2="80"/></symbol>
<symbol viewBox="0 0 100 100" class="icon" id="lob-internet"><path d="M15.3,21h70.4c1.5,0,2.7,1.2,2.7,2.6v43.7c0,1.4-1.2,2.6-2.7,2.6H15.3c-1.5,0-2.7-1.2-2.7-2.6V23.6C12.6,22.2,13.7,21,15.3,21z"/><path d="M7.4,70.1h85c1.8,0,3.2,0.3,3.2,0.4v8.1c0,0.3-1.4,0.4-3.2,0.4h-85c-1.8,0-3.1-0.3-3.1-0.4v-8C4.4,70.4,5.8,70.1,7.4,70.1z"/></symbol>
<symbol viewBox="0 0 100 100" class="icon" id="lob-phone"><path d="M95.6,76.5 c0-1.2-0.8-3.3-1.4-3.9c-3-3-8.7-4.4-14.9-8.3c-6-3.8-6.6-2.7-7.7-2.1c-1.2,0.5-6.2,8-8.6,10.2c-1.5,1.5-3.6,1.2-4.4,0.9 c-17.6-6.6-31-30.2-31-30.2c-1.7-1.7,0.2-3.5,0.2-3.5c3.3-3.2,4.7-4.7,6.6-7.1c3.5-4.4-5.4-21.3-6.5-25C26.9,4,20,5.1,20,5.1 C6.4,6.7,2.5,24.9,5.2,32.3c16.4,44.5,58.3,75,83,58C88.2,90.3,95.3,86.8,95.6,76.5z"/></symbol>
<symbol viewBox="0 0 100 100" class="icon" id="lob-home"><path d="M14.5,50.3v36.1c0,1.7,1.3,3,3,3H81c1.7,0,3-1.3,3-3v-71H72v12.6"/><path d="M4.1,47L50,10.6L95.9,47"/><path d="M60.9,47.4c5.9,5.9,5.9,15.5,0,21.4c-5.9,5.9-15.5,5.9-21.4,0 c-5.9-5.9-5.9-15.5,0-21.4"/><line x1="50.2" y1="37.7" x2="50.2" y2="53.9"/></symbol>
<symbol viewBox="0 0 100 100" class="icon" id="lob-bundle"><path d="M55.559,18h37.636c0.815,0,1.405,0.499,1.405,1.134v20.405 c0,0.635-0.635,1.134-1.405,1.134H55.559c-0.816,0-1.406-0.499-1.406-1.134V19.134C54.107,18.454,54.742,18,55.559,18z"/><line x1="74.376" y1="40.899" x2="74.376" y2="45.751"/><line x1="67.529" y1="46.114" x2="81.223" y2="46.114"/><path d="M9.635,59.869h34.146c0.728,0,1.31,0.582,1.31,1.261v21.195 c0,0.68-0.583,1.262-1.31,1.262H9.635c-0.727,0-1.309-0.582-1.309-1.262V61.13C8.326,60.451,8.859,59.869,9.635,59.869z"/><path d="M5.803,83.683h41.228c0.873,0,1.552,0.146,1.552,0.195v3.928 c0,0.146-0.679,0.194-1.552,0.194H5.803C4.93,88,4.3,87.854,4.3,87.806v-3.88C4.348,83.828,5.027,83.683,5.803,83.683z"/><path d="M90.719,81.788c0-0.419-0.279-1.152-0.488-1.362 c-1.047-1.047-3.038-1.536-5.204-2.897c-2.095-1.328-2.305-0.943-2.688-0.734c-0.418,0.175-2.165,2.795-3.003,3.563 c-0.524,0.524-1.257,0.419-1.537,0.313c-6.146-2.305-10.824-10.545-10.824-10.545c-0.594-0.594,0.069-1.222,0.069-1.222 c1.152-1.118,1.641-1.643,2.305-2.48c1.223-1.536-1.886-7.438-2.271-8.729c-0.349-1.223-2.758-0.839-2.758-0.839 c-4.749,0.56-6.111,6.915-5.168,9.498c5.727,15.541,20.358,26.192,28.983,20.254C88.135,86.606,90.614,85.385,90.719,81.788z"/><path d="M11.228,30.443v16.102c0,0.757,0.58,1.338,1.338,1.338h28.322 c0.758,0,1.338-0.581,1.338-1.338V14.877h-5.352v5.62"/><path d="M6.589,28.971l20.472-16.235l20.473,16.235"/><path d="M31.923,29.15c2.631,2.631,2.631,6.914,0,9.544 c-2.632,2.632-6.914,2.632-9.545,0c-2.632-2.631-2.632-6.913,0-9.544"/><line x1="27.15" y1="24.824" x2="27.15" y2="32.049"/></symbol>
<symbol viewBox="0 0 100 100" class="icon" id="lob-prefs"><path d="M50,34.2c-4.2,0-8.3,1.7-11.2,4.6 c-2.9,2.9-4.6,7-4.6,11.2s1.7,8.3,4.6,11.2c2.9,2.9,7,4.6,11.2,4.6c4.2,0,8.3-1.7,11.2-4.6c2.9-2.9,4.6-7,4.6-11.2 s-1.7-8.3-4.6-11.2C58.3,35.8,54.2,34.2,50,34.2z"/><path d="M43.2,94.7l8.3,0.6c1.5-4,3.5-9.6,3.7-10.1V85 c0.2-0.2,0.4-0.4,0.6-0.4c4.1-0.7,7.9-2,11.4-4c0.2-0.2,0.6-0.2,0.7,0l9,5.9l6.1-5.5l-4.6-9.8c-0.2-0.2-0.2-0.6,0-0.7 c2.4-3.3,4.2-7,5.3-10.9c0-0.2,0.4-0.6,0.6-0.6l10.5-2.2l0.5-8.3l-10.1-3.7c-0.2,0-0.4-0.4-0.6-0.6c-0.7-4.1-2-7.9-3.9-11.4 c-0.2-0.2-0.2-0.6,0-0.7c0,0,0,0,0-0.2l5.7-8.8l-5.3-6.3l-9.8,4.6c-0.2,0.2-0.6,0-0.7,0c-3.3-2.4-7-4.2-10.9-5.3 c-0.2,0-0.6-0.4-0.6-0.6L57,5.3l-8.3-0.6L45,14.8V15c-0.2,0.2-0.4,0.4-0.6,0.4c-4,0.7-7.9,2-11.4,4.1c-0.2,0.2-0.4,0.2-0.7,0 l-0.2-0.2l-8.8-5.7L17,18.9l5,9.4c0.2,0.2,0.2,0.6,0,0.7c-2.6,3.5-4.4,7.4-5.5,11.4c0,0.2-0.4,0.6-0.6,0.6L5.5,43.2l-0.7,8.3 L15,55.2c0.2,0.2,0.4,0.4,0.6,0.6c0.7,4,2,7.9,4.1,11.4c0.2,0.2,0.2,0.6,0,0.7l-5.9,9l5.3,6.3l9.8-4.8c0.2-0.2,0.6-0.2,0.7,0 c3.3,2.4,7,4.2,11,5.3c0.4,0,0.6,0.4,0.6,0.7l0,0C41.2,85.2,42.5,90.9,43.2,94.7z"/></symbol>
<symbol viewBox="0 0 100 100" class="icon" id="lob-apps"><path d="M23.2,84.7c0,5.7,4.6,10.4,10.4,10.4h32.7 c5.7,0,10.4-4.6,10.4-10.4V15.3c0-5.7-4.6-10.4-10.4-10.4H33.6c-5.7,0-10.4,4.6-10.4,10.4V84.7z"/><line x1="23" y1="19.6" x2="77" y2="19.6"/><line x1="23.4" y1="80.6" x2="76.6" y2="80.6"/><circle cx="49.9" cy="87.3" r="2.7"/></symbol>
<symbol viewBox="0 0 100 100" class="icon" id="lob-access"><path d="M61,15.5c0,6.1-4.9,11.2-11.1,11.2c-6.1,0-11.1-5.1-11.1-11.2c0-6.3,4.9-11.2,11.1-11.2C56.1,4.2,61,9.2,61,15.5z M62,95.8 l-24.2-0.2l-2.3-46.2c0-0.4,0-0.7,0-1.1C29.4,47.1,24.1,45,20.9,42c-11.1-10.2-9.5-12.8-9.5-12.8c9.1,7.9,29,9.7,38.6,9.7 c9.7,0,29.3-1.8,38.5-9.7c0,0,1.6,2.8-9.7,13c-3.3,2.8-8.4,4.9-14.6,6.3c0,0.4,0,0.7,0,1.1L62,95.8z"/></symbol>
<symbol viewBox="0 0 100 100" class="icon" id="lob-started"><polygon points="67.5,56.2 94.4,43.3 77.9,35 51,48"/><polygon points="33.5,56.2 5.6,43.3 22.1,35 50,48"/><polygon points="31.4,12.8 4.5,26 22.1,33.5 49,20.2"/><polygon points="67.5,12.8 95.5,26 77.9,33.5 50,20.2"/><polyline points="22.1,51 22.1,74.9 50,87.2 76.9,74.9 76.9,52"/><line x1="50" y1="49" x2="50" y2="87.2"/><line x1="50" y1="21" x2="50" y2="48"/></symbol>
<symbol viewBox="0 0 100 100" class="icon" id="icon-people"><path d="M24.1,28c4.5,0,8.1-3.8,8.1-8.5c0-4.7-3.6-8.5-8.1-8.5c-4.5,0-8.1,3.8-8.1,8.5C16.1,24.3,19.7,28,24.1,28 L24.1,28z M29.2,61.9V31.3H16.3c-3.6,0-6.5,3.1-6.5,6.6v17.2c0,1.9,1.4,3.3,3.3,3.4h3.2v27.2c0,1.9,1.4,3.3,3.3,3.4h9.7 c1.8,0,3.2-1.5,3.2-3.4V65.3C30.7,65.3,29.2,63.7,29.2,61.9L29.2,61.9z M49.7,24.5c5.4,0,9.7-4.6,9.7-10.2c0-5.6-4.3-10.2-9.7-10.2 c-5.4,0-9.7,4.6-9.7,10.2C40,19.9,44.4,24.5,49.7,24.5L49.7,24.5z M83.6,31.3H70.7v30.6c0,1.9-1.4,3.4-3.2,3.4v20.4 c0,1.9,1.4,3.3,3.3,3.4h9.7c1.8,0,3.2-1.5,3.2-3.4V58.5h3.2c1.8,0,3.2-1.5,3.2-3.4V37.9c-0.1-3.5-2.9-6.5-6.6-6.6H83.6z M75.3,28 c4.5,0,8.1-3.8,8.1-8.5c0-4.7-3.6-8.5-8.1-8.5c-4.5,0-8.1,3.8-8.1,8.5C67.2,24.3,70.8,28,75.3,28L75.3,28z M59.7,27.9H40.3 c-3.6,0-6.5,3.4-6.5,7.1v23.5c0,1.9,1.4,3.3,3.3,3.4h3.2v30.6c0,1.9,1.4,3.3,3.3,3.4h12.9c1.8,0,3.2-1.5,3.2-3.4V61.9H63 c1.8,0,3.2-1.5,3.2-3.4V35C66.1,31.3,63.2,27.8,59.7,27.9L59.7,27.9z"/></symbol>
<symbol viewBox="0 0 100 100" id="icon-chat"><path d="M95.2,4.6 4.7,4.6 4.7,68.8 47.3,68.8 72.2,95.8 72.1,68.8 95.2,68.8z"/></symbol>
<symbol viewBox="0 0 100 100" class="icon" id="icon-geo"><polyline points="86.1,32.8 95.5,35.5 95.5,95.4 65.7,84.5 34.8,94.2 4.5,83.9 5.1,25.1 34.9,36.8 62.4,27.7"/><line x1="34.5" y1="36.4" x2="34.5" y2="93.6"/><line x1="65.2" y1="33.8" x2="65.2" y2="84.3"/><path d="M75.2,4.6c5.9-0.1,12.3,3.8,13.8,9.1c1.4,5.8,0.7,9.9-1.7,16.5 C84.5,37.8,76.7,48,75.7,48c-1.2,0-9.4-10.1-12.2-17.7c-2.5-6.7-3.2-10.7-1.7-16.5c1.3-5.4,7.8-9.3,13.8-9.1"/><circle cx="75.4" cy="18" r="5.7"/></symbol>
<symbol viewBox="0 0 100 100" id="icon-geo-pin"><path fill="currentColor" d="M50.001,5.076c-17.573,0-31.822,13.552-31.822,30.264c0,23.786,31.822,59.584,31.822,59.584 s31.82-35.799,31.82-59.584C81.821,18.627,67.572,5.076,50.001,5.076z M50.001,50c-7.238,0-13.103-5.867-13.103-13.103 c0-7.236,5.865-13.103,13.103-13.103c7.232,0,13.102,5.867,13.102,13.103C63.103,44.133,57.233,50,50.001,50z"/></symbol>
<symbol viewBox="0 0 100 100" id="icon-cart"><path d="M92.045,74.18H33.441c-1.54,0-2.862-1.083-3.164-2.59L18.929,14.876c-0.604-3.015-3.249-5.184-6.321-5.184H4.731 M40.461,85.473c0,2.666-2.168,4.835-4.835,4.835c-2.67,0-4.835-2.169-4.835-4.835c0-2.67,2.166-4.836,4.835-4.836 C38.293,80.637,40.461,82.803,40.461,85.473L40.461,85.473z M92.045,85.473c0,2.666-2.165,4.835-4.834,4.835c-2.671,0-4.837-2.169-4.837-4.835c0-2.67,2.166-4.836,4.837-4.836 C89.88,80.637,92.045,82.803,92.045,85.473L92.045,85.473z M29.179,64.381l60.281-5.997c3.296-0.33,5.809-3.104,5.809-6.419V22.466c0-1.779-1.441-3.224-3.224-3.224H21.12"/></symbol>
<symbol viewBox="0 0 100 100" id="icon-device"><path d="M70.72,94.628h-41.44 c-1.759,0-3.188-1.429-3.188-3.188V8.56c0-1.759,1.429-3.188,3.188-3.188h41.44c1.759,0,3.188,1.429,3.188,3.188V91.44 C73.908,93.199,72.479,94.628,70.72,94.628L70.72,94.628z M53.188,86.659c0,1.759-1.429,3.188-3.189,3.188 c-1.759,0-3.188-1.429-3.188-3.188c0-1.76,1.429-3.188,3.188-3.188C51.759,83.471,53.188,84.899,53.188,86.659 M26.092,14.935h47.816 M26.092,78.689h47.816"/></symbol>
<symbol viewBox="0 0 100 100" id="icon-people-pair"><path d="M31.228,64.041 c7.153-3.6,17.907-3.881,27.221-3.881c10.57,0,22.97,0.363,29.868,5.494c6.919,5.134,8.384,17.859,8.384,25.708H20.218 c0-1.281,0.04-2.699,0.134-4.19c-0.062,0.462-0.121,0.931-0.176,1.408H3.3c0-6.344,1.167-16.647,6.771-20.83 c5.244-3.881,14.33-4.39,22.48-4.434C32.551,63.316,32.043,63.503,31.228,64.041z M31.228,64.041 c-0.948,0.478-1.834,1.012-2.646,1.613c-5.788,4.292-7.744,13.898-8.229,21.518C22.471,71.487,28.529,65.824,31.228,64.041z M80.36,29.721c0-11.666-9.509-21.084-21.184-21.084c-11.676,0-21.186,9.418-21.186,21.084c0,11.604,9.509,21.042,21.186,21.042 C70.852,50.763,80.36,41.325,80.36,29.721z M37.992,29.721 M45.432,13.697 c-2.578-1.51-5.572-2.392-8.775-2.392c-9.559,0-17.346,7.711-17.346,17.264c0,9.5,7.787,17.228,17.346,17.228 c2.572,0,5.008-0.575,7.207-1.579"/></symbol>
<symbol viewBox="0 0 100 100" id="icon-calendar"><path d="M88.507,93.131c0,1.771-1.433,3.204-3.203,3.204H13.96c-1.769,0-3.204-1.434-3.204-3.204V12.858c0-1.769,1.435-3.204,3.204-3.204h71.344c1.771,0,3.203,1.435,3.203,3.204V93.131z"/><line x1="10.756" y1="77.893" x2="62.631" y2="77.893"/><path d="M88.507,57.863c0,0-29.482,36.48-33.288,38.472c4.055-6.773,8.825-9.141,8.414-23.45C81.015,67.038,82.021,64.147,88.507,57.863z"/><line x1="25.372" y1="3.438" x2="25.372" y2="17.259"/><line x1="49.632" y1="3.438" x2="49.632" y2="17.259"/><line x1="73.448" y1="3.438" x2="73.448" y2="17.259"/><circle cx="25.56" cy="19.01" r="3.44"/><circle cx="49.632" cy="19.01" r="3.44"/><circle cx="73.447" cy="19.01" r="3.439"/></symbol>
<symbol viewBox="0 0 100 100" id="icon-equipment"><path d="M57.882,72.337c0,1.448-1.18,2.63-2.625,2.63 c-1.454,0-2.627-1.182-2.627-2.63c0-1.451,1.173-2.624,2.627-2.624C56.702,69.706,57.882,70.886,57.882,72.337"/><path d="M65.085,88.104H8.639c-3.283,0-5.941-2.563-5.941-5.729 V62.305c0-3.165,2.659-5.732,5.941-5.732h56.446c3.28,0,5.943,2.567,5.943,5.732v20.071C71.028,85.541,68.358,88.104,65.085,88.104 L65.085,88.104z"/><path d="M10.582,59.199V43.426"/><path d="M36.863,72.337v2.63"/><path d="M26.346,72.337v2.63"/><path d="M13.211,72.337v2.63"/><path d="M84.162,59.199c0,1.448-1.178,2.623-2.627,2.623 c-1.446,0-2.623-1.175-2.623-2.623c0-1.447,1.177-2.627,2.623-2.627C82.984,56.572,84.162,57.748,84.162,59.199"/><path d="M28.979,57.654v-8.491c0-3.16,2.658-5.733,5.941-5.733 h56.439c3.294,0,5.944,2.573,5.944,5.733v20.071c0,3.165-2.65,5.732-5.944,5.732H70.567h-0.744"/><path d="M36.863,43.426V27.662"/><path d="M23.722,17.149 c3.417-3.252,8.041-5.253,13.141-5.253c5.095,0,9.721,2.001,13.136,5.253"/><path d="M28.979,22.405 c2.074-1.628,4.842-2.626,7.884-2.626c3.042,0,5.808,0.998,7.879,2.626"/></symbol>
<symbol viewBox="0 0 100 100" class="icon" id="icon-hold"><use xlink:href="#lob-phone"></use><use xlink:href="#icon-arrow" transform="scale(0.75) translate(75 -15)"></use></symbol>
<symbol viewBox="0 0 100 100" class="icon" id="icon-delete"><line x1="25" y1="25" x2="75" y2="75"></line><line x1="25" y1="75" x2="75" y2="25"></line></symbol>
<symbol viewBox="0 0 100 100" class="icon" id="icon-search"><circle cx="42.9" cy="41.5" r="37.2"/><line x1="67.8" y1="69.2" x2="94.3" y2="95.7"/></symbol>
<symbol viewBox="0 0 100 100" class="icon" id="icon-add"><line x1="50" y1="25" x2="50" y2="75" stroke="currentColor"></line><line x1="25" y1="50" x2="75" y2="50" stroke="currentColor"></line></symbol>
<symbol viewBox="0 0 100 100" class="icon" id="icon-close"><line x1="25" y1="25" x2="75" y2="75"></line><line x1="25" y1="75" x2="75" y2="25"></line></symbol>
<symbol viewBox="0 0 100 100" class="icon" id="icon-check"><polyline points="25.616,53.02 39.55,66.953 74.384,32.119"></polyline></symbol>
<symbol viewBox="0 0 100 100" class="shapes" id="icon-arrow"><line x1="82.226" y1="50.794" x2="18.227" y2="50.794"/><polyline fill="none" points="42.844,25.662 18.227,50.794 42.844,75.926"/></symbol>
<symbol viewBox="0 0 100 100" class="icon" id="icon-star"><path d="M50,4.3 63.4,31.4 93.2,35.8 71.6,56.8 76.7,86.6 50,72.5  23.3,86.6 28.4,56.8 6.8,35.8 36.6,31.4z"/></symbol>
<symbol viewBox="0 0 100 100" class="icon" id="icon-shield"><path d="M50,95.7c36.8-34.4,38.3-9.8,38.3-79.9 C78,15.8,60.6,16,50,4.3C39.4,16,22,15.8,11.7,15.8C11.7,85.9,13.2,61.3,50,95.7z"/></symbol>
<symbol viewBox="0 0 100 100" class="icon" id="icon-move"><circle cx="78.8" cy="50" r="17.3"/><circle fill="none" stroke-dasharray="2,3" cx="21.4" cy="50" r="17.3"/><line x1="45.7" y1="50" x2="55.3" y2="50"/><polyline points="53.7,48.4 55.3,50 53.7,51.6 "/></symbol>
<symbol viewBox="0 0 100 100" class="shapes" id="icon-chevron"><polyline fill="none" transform="rotate(180 50 50) translate(10 0)" points="42.844,25.662 18.227,50.794 42.844,75.926"/></symbol>
<symbol viewBox="0 0 100 100" class="shapes" id="icon-exclamation"><path d="M45.562,27.811v9.186l2.13,21.367h6.59l1.933-21.367v-9.186H45.562z M45.628,64.088v10.718h10.715V64.088H45.628z"/></symbol>
<symbol viewBox="0 0 100 100" class="icon" id="icon-ellipsis"><circle cx="23" cy="50" r="8.9"/><circle cx="50" cy="50" r="8.9"/><circle cx="77.4" cy="50" r="8.9"/></symbol>
<symbol viewBox="0 0 100 100" class="icon" id="icon-loading-dots" fill="rgba(0, 0, 0, 0.87)" stroke="none"><use xlink:href="#shape-circle"></use><use xlink:href="#icon-ellipsis" fill="rgba(255, 255, 255, 0.54)"></use></symbol>
<symbol viewBox="0 0 24 24" class="icon" id="icon-missing"><path d="M12,24 C18.627417,24 24,18.627417 24,12 C24,5.372583 18.627417,0 12,0 C5.372583,0 0,5.372583 0,12 C0,18.627417 5.372583,24 12,24 Z M7,10 L17,10 L17,14 L7,14 L7,10 Z"/></symbol>
<symbol viewBox="0 0 100 100" class="icon" id="icon-bulb"><path d="M62.32,64.096"/><path d="M72.947,47.617c0-12.167-10.165-22.022-22.639-22.022 c-12.475,0-22.639,9.856-22.639,22.022c0,9.548,6.16,17.557,14.784,20.637l0,0c2.464,3.542,2.464,6.314,2.464,6.314h11.088c0,0,0.309-2.927,2.926-6.622l0,0C67.095,64.712,72.947,56.858,72.947,47.617z"/><path d="M40.144,65.79"/><line x1="44.148" y1="82.269" x2="56.314" y2="82.269"/><line x1="47.844" y1="89.97" x2="52.464" y2="89.97"/><line x1="11.499" y1="46.847" x2="16.119" y2="46.847"/><line x1="49.23" y1="10.656" x2="49.23" y2="15.122"/><line x1="88.501" y1="46.847" x2="83.881" y2="46.847"/><line x1="22.895" y1="21.59" x2="25.975" y2="24.825"/><line x1="77.105" y1="21.59" x2="74.025" y2="24.825"/></symbol>
<symbol viewBox="0 0 25 25" class="icon" id="icon-play"><g stroke="none" stroke-width="1" fill="none" fill-rule="evenodd"><g transform="translate(1.000000, 1.000000)"><polygon fill="currentColor" fill-rule="nonzero" points="14.3125 10.5 8.6875 15 8.6875 6"></polygon><circle stroke="currentColor" stroke-width="2" cx="10.5" cy="10.5" r="10"></circle></g></g></symbol>
<symbol viewBox="0 0 25 25" class="icon" id="icon-pause"><g stroke="none" stroke-width="1" fill="none" fill-rule="evenodd"><g stroke="currentColor" stroke-width="2"><g  transform="translate(9.000000, 8.000000)" stroke-linecap="square"><path d="M1,0.429359054 L1,8.59886038" ></path><path d="M6,0.429359054 L6,8.59886038"></path></g><circle  cx="12.5" cy="12.5" r="10"></circle></g></g></symbol>
<symbol viewBox="-1 0 32 30" class="icon check-circle" id="icon-check-circle"><circle class="check-circle__circle" fill="#0272B6" cx="15" cy="15" r="15"/><path class="check-circle__check" fill="#FFF" d="M12.434 20.064L8.668 16.25c-.307-.31-.307-.817 0-1.128.307-.31.806-.31 1.114 0l3.207 3.25 7.72-7.826c.306-.31.803-.31 1.112 0 .307.31.307.817 0 1.128l-8.276 8.39c-.145.148-.345.233-.554.233-.208 0-.408-.085-.558-.233z"/></symbol>
<symbol viewBox="0 0 45 25" class="icon" id="icon-cc-visa"><g stroke="none" stroke-width="1" fill="none" fill-rule="evenodd"><path d="M0,4.00800208 C0,1.79444366 1.79182266,0 3.99344981,0 L41.0065502,0 C43.2120716,0 45,1.78172798 45,4.00800208 L45,20.7665958 C45,22.9801542 43.2081773,24.7745978 41.0065502,24.7745978 L3.99344981,24.7745978 C1.78792838,24.7745978 0,22.9928699 0,20.7665958 L0,4.00800208 Z" fill="#FFFFFF"></path><path d="M0.5,4.00800208 C0.5,2.07160378 2.06695236,0.5 3.99344981,0.5 L41.0065502,0.5 C42.9401528,0.5 44.5,2.06210054 44.5,4.00800208 L44.5,20.7665958 C44.5,22.7029941 42.9330476,24.2745978 41.0065502,24.2745978 L3.99344981,24.2745978 C2.05984716,24.2745978 0.5,22.7124973 0.5,20.7665958 L0.5,4.00800208 Z" stroke="#F2F4F5"></path><g transform="translate(22.000000, 12.476928) scale(-1, 1) rotate(-180.000000) translate(-22.000000, -12.476928) translate(6.000000, 6.976928)" fill-rule="nonzero" fill="#1A1F71"><path d="M16.563771,7.3243992 C16.545781,5.9060232 17.827811,5.1144596 18.7935944,4.643877 C19.7858894,4.1609853 20.1191794,3.8513665 20.115392,3.4196045 C20.1078172,2.75870574 19.3238284,2.46707704 18.5900224,2.45571488 C17.309886,2.43583111 16.5656647,2.80131382 15.9738857,3.077793 L15.5127715,0.91992999 C16.1064442,0.64629137 17.2057329,0.40768608 18.345736,0.39727077 C21.021524,0.39727077 22.772243,1.71812152 22.7817115,3.7661503 C22.7921268,6.3652437 19.1865356,6.5091644 19.2111536,7.670945 C19.2196753,8.0231718 19.5558057,8.3990699 20.2924522,8.4947013 C20.6569881,8.5429905 21.6634859,8.5799175 22.8044358,8.0544178 L23.2522942,10.1422141 C22.6387377,10.3656699 21.8500146,10.5796572 20.8681349,10.5796572 C18.3495234,10.5796572 16.5779737,9.2408163 16.563771,7.3243992 M27.5557111,10.3997563 C27.0671384,10.3997563 26.6552602,10.1147556 26.471572,9.6773125 L22.649153,0.55065989 L25.3230473,0.55065989 L25.855175,2.02111237 L29.122742,2.02111237 L29.4314139,0.55065989 L31.7881146,0.55065989 L29.7315642,10.3997563 L27.5557111,10.3997563 M27.9297155,7.7391179 L28.7013953,4.0407358 L26.5880341,4.0407358 L27.9297155,7.7391179 M13.3217689,10.3997563 L11.2140888,0.55065989 L13.7620525,0.55065989 L15.8687858,10.3997563 L13.3217689,10.3997563 M9.5523733,10.3997563 L6.9002565,3.6960837 L5.8274795,9.3960991 C5.7015489,10.0323799 5.2044546,10.3997563 4.6524431,10.3997563 L0.31683334,10.3997563 L0.25623517,10.1138087 C1.1462708,9.9206521 2.15750278,9.6091396 2.77011241,9.2758496 C3.1450636,9.0722777 3.25205724,8.8942705 3.37514728,8.410432 L5.4070797,0.55065989 L8.0999109,0.55065989 L12.2281613,10.3997563 L9.5523733,10.3997563"></path></g></g></symbol>
</defs></svg>
